<?xml version="1.0" encoding="UTF-8" standalone="no"?>
<!-- Created with Inkscape (http://www.inkscape.org/) -->

<svg
   xmlns:dc="http://purl.org/dc/elements/1.1/"
   xmlns:cc="http://creativecommons.org/ns#"
   xmlns:rdf="http://www.w3.org/1999/02/22-rdf-syntax-ns#"
   xmlns:svg="http://www.w3.org/2000/svg"
   xmlns="http://www.w3.org/2000/svg"
   xmlns:sodipodi="http://sodipodi.sourceforge.net/DTD/sodipodi-0.dtd"
   xmlns:inkscape="http://www.inkscape.org/namespaces/inkscape"
   width="252"
   height="490"
   id="svg2"
   version="1.1"
   inkscape:version="0.48.4 r9939"
   sodipodi:docname="s4_Template.svg">
  <title
     id="title4567">Galaxy S4 Flat Template</title>
  <defs
     id="defs4">
    <filter
       id="filter3765"
       inkscape:label="Darken edges"
       inkscape:menu="Shadows and Glows"
       inkscape:menu-tooltip="Darken the edges with an inner blur"
       color-interpolation-filters="sRGB">
      <feGaussianBlur
         id="feGaussianBlur3767"
         result="result6"
         stdDeviation="0.5" />
      <feComposite
         id="feComposite3769"
         in2="result6"
         operator="atop"
         in="SourceGraphic"
         result="result8" />
      <feComposite
         id="feComposite3771"
         in2="SourceAlpha"
         in="result8"
         operator="atop"
         result="result9" />
    </filter>
    <filter
       id="filter3971"
       inkscape:label="Drop Shadow"
       color-interpolation-filters="sRGB">
      <feFlood
         id="feFlood3973"
         flood-opacity="0.3"
         flood-color="rgb(0,0,0)"
         result="flood" />
      <feComposite
         id="feComposite3975"
         in2="SourceGraphic"
         in="flood"
         operator="in"
         result="composite1" />
      <feGaussianBlur
         id="feGaussianBlur3977"
         stdDeviation="0.5"
         result="blur" />
      <feOffset
         id="feOffset3979"
         dx="0"
         dy="0.5"
         result="offset" />
      <feComposite
         id="feComposite3981"
         in2="offset"
         in="SourceGraphic"
         operator="over"
         result="composite2" />
    </filter>
    <filter
       id="filter4475"
       style="color-interpolation-filters:sRGB;"
       inkscape:label="Drop Shadow">
      <feFlood
         id="feFlood4477"
         flood-opacity="0.4"
         flood-color="rgb(0,0,0)"
         result="flood" />
      <feComposite
         id="feComposite4479"
         in2="SourceGraphic"
         in="flood"
         operator="in"
         result="composite1" />
      <feGaussianBlur
         id="feGaussianBlur4481"
         in="composite"
         stdDeviation="0.5"
         result="blur" />
      <feOffset
         id="feOffset4483"
         dx="0"
         dy="0.5"
         result="offset" />
      <feComposite
         id="feComposite4485"
         in2="offset"
         in="SourceGraphic"
         operator="over"
         result="composite2" />
    </filter>
    <filter
       id="filter4575"
       style="color-interpolation-filters:sRGB;"
       inkscape:label="Drop Shadow">
      <feFlood
         id="feFlood4577"
         flood-opacity="0.4"
         flood-color="rgb(0,0,0)"
         result="flood" />
      <feComposite
         id="feComposite4579"
         in2="SourceGraphic"
         in="flood"
         operator="in"
         result="composite1" />
      <feGaussianBlur
         id="feGaussianBlur4581"
         in="composite"
         stdDeviation="0.5"
         result="blur" />
      <feOffset
         id="feOffset4583"
         dx="0"
         dy="0.5"
         result="offset" />
      <feComposite
         id="feComposite4585"
         in2="offset"
         in="SourceGraphic"
         operator="over"
         result="composite2" />
    </filter>
  </defs>
  <sodipodi:namedview
     id="base"
     pagecolor="#ffffff"
     bordercolor="#666666"
     borderopacity="1.0"
     inkscape:pageopacity="0.0"
     inkscape:pageshadow="2"
     inkscape:zoom="2.0116466"
     inkscape:cx="237.18814"
     inkscape:cy="10.129186"
     inkscape:document-units="px"
     inkscape:current-layer="layer1"
     showgrid="false"
     units="px"
     inkscape:showpageshadow="false"
     inkscape:window-width="1600"
     inkscape:window-height="876"
     inkscape:window-x="1280"
     inkscape:window-y="24"
     inkscape:window-maximized="1"
     showguides="true"
     inkscape:guide-bbox="true" />
  <metadata
     id="metadata7">
    <rdf:RDF>
      <cc:Work
         rdf:about="">
        <dc:format>image/svg+xml</dc:format>
        <dc:type
           rdf:resource="http://purl.org/dc/dcmitype/StillImage" />
        <dc:title>Galaxy S4 Flat Template</dc:title>
        <dc:date>10.12.2013</dc:date>
        <dc:creator>
          <cc:Agent>
            <dc:title>Seyhan HUSEYIN</dc:title>
          </cc:Agent>
        </dc:creator>
        <dc:publisher>
          <cc:Agent>
            <dc:title>Seyhan HUSEYIN</dc:title>
          </cc:Agent>
        </dc:publisher>
        <dc:identifier>Seyhan HUSEYIN</dc:identifier>
        <dc:rights>
          <cc:Agent>
            <dc:title>Seyhan HUSEYIN</dc:title>
          </cc:Agent>
        </dc:rights>
        <dc:subject>
          <rdf:Bag>
            <rdf:li>samsung</rdf:li>
            <rdf:li>galaxy</rdf:li>
            <rdf:li>s4</rdf:li>
          </rdf:Bag>
        </dc:subject>
        <dc:description>Flat Samsung Galaxy S4 Template</dc:description>
        <cc:license
           rdf:resource="http://creativecommons.org/licenses/by/3.0/" />
      </cc:Work>
      <cc:License
         rdf:about="http://creativecommons.org/licenses/by/3.0/">
        <cc:permits
           rdf:resource="http://creativecommons.org/ns#Reproduction" />
        <cc:permits
           rdf:resource="http://creativecommons.org/ns#Distribution" />
        <cc:requires
           rdf:resource="http://creativecommons.org/ns#Notice" />
        <cc:requires
           rdf:resource="http://creativecommons.org/ns#Attribution" />
        <cc:permits
           rdf:resource="http://creativecommons.org/ns#DerivativeWorks" />
      </cc:License>
    </rdf:RDF>
  </metadata>
  <g
     inkscape:label="Layer 1"
     inkscape:groupmode="layer"
     id="layer1"
     transform="translate(0,-562.36214)">
    <g
       id="g4487"
       inkscape:export-xdpi="90"
       inkscape:export-ydpi="90">
      <g
         id="g4329">
        <path
           inkscape:connector-curvature="0"
           id="path4327"
           d="m 1.2468493,624.34654 0,66.76875"
           style="fill:#e6e6e6;stroke:#999999;stroke-width:2.4936986;stroke-linecap:round;stroke-linejoin:round;stroke-miterlimit:4;stroke-opacity:1;stroke-dasharray:none" />
        <path
           style="fill:#e6e6e6;stroke:#999999;stroke-width:2.14299989;stroke-linecap:round;stroke-linejoin:round;stroke-miterlimit:4;stroke-opacity:1;stroke-dasharray:none"
           d="m 251.0715,659.57294 0,31.7177"
           id="path4293"
           inkscape:connector-curvature="0" />
        <rect
           style="fill:#ffffff;fill-opacity:1;fill-rule:nonzero;stroke:#b3b3b3;stroke-width:2.375;stroke-linecap:round;stroke-linejoin:round;stroke-miterlimit:4;stroke-opacity:1;stroke-dasharray:none;stroke-dashoffset:0"
           id="rect2985"
           width="247.62524"
           height="487.62524"
           x="2.1873782"
           y="563.5495"
           ry="38.140411" />
        <rect
           style="fill:#333333;fill-opacity:1;fill-rule:nonzero;stroke:#b3b3b3;stroke-width:0.36148381000000002;stroke-linecap:round;stroke-linejoin:round;stroke-miterlimit:4;stroke-opacity:1;stroke-dasharray:none;stroke-dashoffset:0;filter:url(#filter3765)"
           id="rect3755"
           width="237.63852"
           height="419.63855"
           x="7.1807423"
           y="597.54285"
           ry="2.0000072"
           rx="1.9833206" />
        <rect
           style="fill:#f9f9f9;fill-opacity:1;fill-rule:nonzero;stroke:#b3b3b3;stroke-width:1;stroke-linecap:round;stroke-linejoin:round;stroke-miterlimit:4;stroke-opacity:1;stroke-dasharray:none;stroke-dashoffset:0;filter:url(#filter4575)"
           id="rect3773"
           width="60"
           height="15"
           x="96"
           y="1026.2014"
           rx="6"
           ry="5.5" />
        <g
           id="g4295"
           transform="translate(1.0000004,0)">
          <rect
             ry="3.9999583"
             rx="2.256052"
             y="573.36212"
             x="95"
             height="4"
             width="60"
             id="rect3983"
             style="fill:#b3b3b3;fill-opacity:1;fill-rule:nonzero;stroke:none" />
          <path
             sodipodi:type="arc"
             style="fill:#333333;fill-opacity:1;fill-rule:nonzero;stroke:none;filter:url(#filter3765)"
             id="path2994"
             sodipodi:cx="-36.468796"
             sodipodi:cy="-71.487625"
             sodipodi:rx="1.581779"
             sodipodi:ry="1.6257174"
             d="m -34.887017,-71.487625 c 0,0.897859 -0.708186,1.625717 -1.581779,1.625717 -0.873592,0 -1.581779,-0.727858 -1.581779,-1.625717 0,-0.897859 0.708187,-1.625718 1.581779,-1.625718 0.873593,0 1.581779,0.727859 1.581779,1.625718 z"
             transform="matrix(0.63219957,0,0,0.61511306,120.05556,619.33516)" />
          <path
             transform="matrix(0.63219957,0,0,0.61511306,123.55556,619.33516)"
             d="m -34.887017,-71.487625 c 0,0.897859 -0.708186,1.625717 -1.581779,1.625717 -0.873592,0 -1.581779,-0.727858 -1.581779,-1.625717 0,-0.897859 0.708187,-1.625718 1.581779,-1.625718 0.873593,0 1.581779,0.727859 1.581779,1.625718 z"
             sodipodi:ry="1.6257174"
             sodipodi:rx="1.581779"
             sodipodi:cy="-71.487625"
             sodipodi:cx="-36.468796"
             id="path2996"
             style="fill:#333333;fill-opacity:1;fill-rule:nonzero;stroke:none;filter:url(#filter3765)"
             sodipodi:type="arc" />
          <path
             sodipodi:type="arc"
             style="fill:#333333;fill-opacity:1;fill-rule:nonzero;stroke:none;filter:url(#filter3765)"
             id="path2998"
             sodipodi:cx="-36.468796"
             sodipodi:cy="-71.487625"
             sodipodi:rx="1.581779"
             sodipodi:ry="1.6257174"
             d="m -34.887017,-71.487625 c 0,0.897859 -0.708186,1.625717 -1.581779,1.625717 -0.873592,0 -1.581779,-0.727858 -1.581779,-1.625717 0,-0.897859 0.708187,-1.625718 1.581779,-1.625718 0.873593,0 1.581779,0.727859 1.581779,1.625718 z"
             transform="matrix(0.63219957,0,0,0.61511306,127.05556,619.33516)" />
          <path
             sodipodi:type="arc"
             style="fill:#333333;fill-opacity:1;fill-rule:nonzero;stroke:none;filter:url(#filter3765)"
             id="path3026"
             sodipodi:cx="-36.468796"
             sodipodi:cy="-71.487625"
             sodipodi:rx="1.581779"
             sodipodi:ry="1.6257174"
             d="m -34.887017,-71.487625 c 0,0.897859 -0.708186,1.625717 -1.581779,1.625717 -0.873592,0 -1.581779,-0.727858 -1.581779,-1.625717 0,-0.897859 0.708187,-1.625718 1.581779,-1.625718 0.873593,0 1.581779,0.727859 1.581779,1.625718 z"
             transform="matrix(0.63219957,0,0,0.61511306,176.05556,619.33516)" />
          <path
             transform="matrix(0.63219957,0,0,0.61511306,130.55556,619.33516)"
             d="m -34.887017,-71.487625 c 0,0.897859 -0.708186,1.625717 -1.581779,1.625717 -0.873592,0 -1.581779,-0.727858 -1.581779,-1.625717 0,-0.897859 0.708187,-1.625718 1.581779,-1.625718 0.873593,0 1.581779,0.727859 1.581779,1.625718 z"
             sodipodi:ry="1.6257174"
             sodipodi:rx="1.581779"
             sodipodi:cy="-71.487625"
             sodipodi:cx="-36.468796"
             id="path3032"
             style="fill:#333333;fill-opacity:1;fill-rule:nonzero;stroke:none;filter:url(#filter3765)"
             sodipodi:type="arc" />
          <path
             sodipodi:type="arc"
             style="fill:#333333;fill-opacity:1;fill-rule:nonzero;stroke:none;filter:url(#filter3765)"
             id="path3034"
             sodipodi:cx="-36.468796"
             sodipodi:cy="-71.487625"
             sodipodi:rx="1.581779"
             sodipodi:ry="1.6257174"
             d="m -34.887017,-71.487625 c 0,0.897859 -0.708186,1.625717 -1.581779,1.625717 -0.873592,0 -1.581779,-0.727858 -1.581779,-1.625717 0,-0.897859 0.708187,-1.625718 1.581779,-1.625718 0.873593,0 1.581779,0.727859 1.581779,1.625718 z"
             transform="matrix(0.63219957,0,0,0.61511306,134.05556,619.33516)" />
          <path
             transform="matrix(0.63219957,0,0,0.61511306,137.55556,619.33516)"
             d="m -34.887017,-71.487625 c 0,0.897859 -0.708186,1.625717 -1.581779,1.625717 -0.873592,0 -1.581779,-0.727858 -1.581779,-1.625717 0,-0.897859 0.708187,-1.625718 1.581779,-1.625718 0.873593,0 1.581779,0.727859 1.581779,1.625718 z"
             sodipodi:ry="1.6257174"
             sodipodi:rx="1.581779"
             sodipodi:cy="-71.487625"
             sodipodi:cx="-36.468796"
             id="path3036"
             style="fill:#333333;fill-opacity:1;fill-rule:nonzero;stroke:none;filter:url(#filter3765)"
             sodipodi:type="arc" />
          <path
             sodipodi:type="arc"
             style="fill:#333333;fill-opacity:1;fill-rule:nonzero;stroke:none;filter:url(#filter3765)"
             id="path3038"
             sodipodi:cx="-36.468796"
             sodipodi:cy="-71.487625"
             sodipodi:rx="1.581779"
             sodipodi:ry="1.6257174"
             d="m -34.887017,-71.487625 c 0,0.897859 -0.708186,1.625717 -1.581779,1.625717 -0.873592,0 -1.581779,-0.727858 -1.581779,-1.625717 0,-0.897859 0.708187,-1.625718 1.581779,-1.625718 0.873593,0 1.581779,0.727859 1.581779,1.625718 z"
             transform="matrix(0.63219957,0,0,0.61511306,141.05556,619.33516)" />
          <path
             transform="matrix(0.63219957,0,0,0.61511306,144.55556,619.33516)"
             d="m -34.887017,-71.487625 c 0,0.897859 -0.708186,1.625717 -1.581779,1.625717 -0.873592,0 -1.581779,-0.727858 -1.581779,-1.625717 0,-0.897859 0.708187,-1.625718 1.581779,-1.625718 0.873593,0 1.581779,0.727859 1.581779,1.625718 z"
             sodipodi:ry="1.6257174"
             sodipodi:rx="1.581779"
             sodipodi:cy="-71.487625"
             sodipodi:cx="-36.468796"
             id="path3040"
             style="fill:#333333;fill-opacity:1;fill-rule:nonzero;stroke:none;filter:url(#filter3765)"
             sodipodi:type="arc" />
          <path
             sodipodi:type="arc"
             style="fill:#333333;fill-opacity:1;fill-rule:nonzero;stroke:none;filter:url(#filter3765)"
             id="path3042"
             sodipodi:cx="-36.468796"
             sodipodi:cy="-71.487625"
             sodipodi:rx="1.581779"
             sodipodi:ry="1.6257174"
             d="m -34.887017,-71.487625 c 0,0.897859 -0.708186,1.625717 -1.581779,1.625717 -0.873592,0 -1.581779,-0.727858 -1.581779,-1.625717 0,-0.897859 0.708187,-1.625718 1.581779,-1.625718 0.873593,0 1.581779,0.727859 1.581779,1.625718 z"
             transform="matrix(0.63219957,0,0,0.61511306,148.05556,619.33516)" />
          <path
             transform="matrix(0.63219957,0,0,0.61511306,151.55556,619.33516)"
             d="m -34.887017,-71.487625 c 0,0.897859 -0.708186,1.625717 -1.581779,1.625717 -0.873592,0 -1.581779,-0.727858 -1.581779,-1.625717 0,-0.897859 0.708187,-1.625718 1.581779,-1.625718 0.873593,0 1.581779,0.727859 1.581779,1.625718 z"
             sodipodi:ry="1.6257174"
             sodipodi:rx="1.581779"
             sodipodi:cy="-71.487625"
             sodipodi:cx="-36.468796"
             id="path3044"
             style="fill:#333333;fill-opacity:1;fill-rule:nonzero;stroke:none;filter:url(#filter3765)"
             sodipodi:type="arc" />
          <path
             sodipodi:type="arc"
             style="fill:#333333;fill-opacity:1;fill-rule:nonzero;stroke:none;filter:url(#filter3765)"
             id="path3048"
             sodipodi:cx="-36.468796"
             sodipodi:cy="-71.487625"
             sodipodi:rx="1.581779"
             sodipodi:ry="1.6257174"
             d="m -34.887017,-71.487625 c 0,0.897859 -0.708186,1.625717 -1.581779,1.625717 -0.873592,0 -1.581779,-0.727858 -1.581779,-1.625717 0,-0.897859 0.708187,-1.625718 1.581779,-1.625718 0.873593,0 1.581779,0.727859 1.581779,1.625718 z"
             transform="matrix(0.63219957,0,0,0.61511306,155.05556,619.33516)" />
          <path
             transform="matrix(0.63219957,0,0,0.61511306,158.55556,619.33516)"
             d="m -34.887017,-71.487625 c 0,0.897859 -0.708186,1.625717 -1.581779,1.625717 -0.873592,0 -1.581779,-0.727858 -1.581779,-1.625717 0,-0.897859 0.708187,-1.625718 1.581779,-1.625718 0.873593,0 1.581779,0.727859 1.581779,1.625718 z"
             sodipodi:ry="1.6257174"
             sodipodi:rx="1.581779"
             sodipodi:cy="-71.487625"
             sodipodi:cx="-36.468796"
             id="path3050"
             style="fill:#333333;fill-opacity:1;fill-rule:nonzero;stroke:none;filter:url(#filter3765)"
             sodipodi:type="arc" />
          <path
             sodipodi:type="arc"
             style="fill:#333333;fill-opacity:1;fill-rule:nonzero;stroke:none;filter:url(#filter3765)"
             id="path3052"
             sodipodi:cx="-36.468796"
             sodipodi:cy="-71.487625"
             sodipodi:rx="1.581779"
             sodipodi:ry="1.6257174"
             d="m -34.887017,-71.487625 c 0,0.897859 -0.708186,1.625717 -1.581779,1.625717 -0.873592,0 -1.581779,-0.727858 -1.581779,-1.625717 0,-0.897859 0.708187,-1.625718 1.581779,-1.625718 0.873593,0 1.581779,0.727859 1.581779,1.625718 z"
             transform="matrix(0.63219957,0,0,0.61511306,162.05556,619.33516)" />
          <path
             transform="matrix(0.63219957,0,0,0.61511306,165.55556,619.33516)"
             d="m -34.887017,-71.487625 c 0,0.897859 -0.708186,1.625717 -1.581779,1.625717 -0.873592,0 -1.581779,-0.727858 -1.581779,-1.625717 0,-0.897859 0.708187,-1.625718 1.581779,-1.625718 0.873593,0 1.581779,0.727859 1.581779,1.625718 z"
             sodipodi:ry="1.6257174"
             sodipodi:rx="1.581779"
             sodipodi:cy="-71.487625"
             sodipodi:cx="-36.468796"
             id="path3062"
             style="fill:#333333;fill-opacity:1;fill-rule:nonzero;stroke:none;filter:url(#filter3765)"
             sodipodi:type="arc" />
          <path
             sodipodi:type="arc"
             style="fill:#333333;fill-opacity:1;fill-rule:nonzero;stroke:none;filter:url(#filter3765)"
             id="path3064"
             sodipodi:cx="-36.468796"
             sodipodi:cy="-71.487625"
             sodipodi:rx="1.581779"
             sodipodi:ry="1.6257174"
             d="m -34.887017,-71.487625 c 0,0.897859 -0.708186,1.625717 -1.581779,1.625717 -0.873592,0 -1.581779,-0.727858 -1.581779,-1.625717 0,-0.897859 0.708187,-1.625718 1.581779,-1.625718 0.873593,0 1.581779,0.727859 1.581779,1.625718 z"
             transform="matrix(0.63219957,0,0,0.61511306,169.05556,619.33516)" />
          <path
             transform="matrix(0.63219957,0,0,0.61511306,172.55556,619.33516)"
             d="m -34.887017,-71.487625 c 0,0.897859 -0.708186,1.625717 -1.581779,1.625717 -0.873592,0 -1.581779,-0.727858 -1.581779,-1.625717 0,-0.897859 0.708187,-1.625718 1.581779,-1.625718 0.873593,0 1.581779,0.727859 1.581779,1.625718 z"
             sodipodi:ry="1.6257174"
             sodipodi:rx="1.581779"
             sodipodi:cy="-71.487625"
             sodipodi:cx="-36.468796"
             id="path3066"
             style="fill:#333333;fill-opacity:1;fill-rule:nonzero;stroke:none;filter:url(#filter3765)"
             sodipodi:type="arc" />
          <g
             style="filter:url(#filter3765)"
             id="g3905"
             transform="matrix(1.1666667,0,0,1.1666667,80,-650.39374)">
            <path
               sodipodi:type="arc"
               style="fill:#333333;fill-opacity:1;fill-rule:nonzero;stroke:none"
               id="path3985"
               sodipodi:cx="-36.468796"
               sodipodi:cy="-71.487625"
               sodipodi:rx="1.581779"
               sodipodi:ry="1.6257174"
               d="m -34.887017,-71.487625 c 0,0.897859 -0.708186,1.625717 -1.581779,1.625717 -0.873592,0 -1.581779,-0.727858 -1.581779,-1.625717 0,-0.897859 0.708187,-1.625718 1.581779,-1.625718 0.873593,0 1.581779,0.727859 1.581779,1.625718 z"
               transform="matrix(1.8965987,0,0,1.8453392,72.166671,1181.2811)" />
            <path
               transform="matrix(0.63219957,0,0,0.61511307,26.055557,1093.3352)"
               d="m -34.887017,-71.487625 c 0,0.897859 -0.708186,1.625717 -1.581779,1.625717 -0.873592,0 -1.581779,-0.727858 -1.581779,-1.625717 0,-0.897859 0.708187,-1.625718 1.581779,-1.625718 0.873593,0 1.581779,0.727859 1.581779,1.625718 z"
               sodipodi:ry="1.6257174"
               sodipodi:rx="1.581779"
               sodipodi:cy="-71.487625"
               sodipodi:cx="-36.468796"
               id="path3117"
               style="opacity:0.66013076;fill:#1a1a1a;fill-opacity:1;fill-rule:nonzero;stroke:none"
               sodipodi:type="arc" />
          </g>
          <g
             style="filter:url(#filter3765)"
             transform="matrix(1.1666667,0,0,1.1666667,159,-650.39378)"
             id="g4053">
            <path
               transform="matrix(1.8965987,0,0,1.8453392,72.166671,1181.2811)"
               d="m -34.887017,-71.487625 c 0,0.897859 -0.708186,1.625717 -1.581779,1.625717 -0.873592,0 -1.581779,-0.727858 -1.581779,-1.625717 0,-0.897859 0.708187,-1.625718 1.581779,-1.625718 0.873593,0 1.581779,0.727859 1.581779,1.625718 z"
               sodipodi:ry="1.6257174"
               sodipodi:rx="1.581779"
               sodipodi:cy="-71.487625"
               sodipodi:cx="-36.468796"
               id="path4055"
               style="fill:#333333;fill-opacity:1;fill-rule:nonzero;stroke:none"
               sodipodi:type="arc" />
            <path
               sodipodi:type="arc"
               style="opacity:0.66013076;fill:#1a1a1a;fill-opacity:1;fill-rule:nonzero;stroke:none"
               id="path4057"
               sodipodi:cx="-36.468796"
               sodipodi:cy="-71.487625"
               sodipodi:rx="1.581779"
               sodipodi:ry="1.6257174"
               d="m -34.887017,-71.487625 c 0,0.897859 -0.708186,1.625717 -1.581779,1.625717 -0.873592,0 -1.581779,-0.727858 -1.581779,-1.625717 0,-0.897859 0.708187,-1.625718 1.581779,-1.625718 0.873593,0 1.581779,0.727859 1.581779,1.625718 z"
               transform="matrix(0.63219957,0,0,0.61511307,26.055557,1093.3352)" />
          </g>
          <g
             style="filter:url(#filter3765)"
             id="g4059"
             transform="matrix(1.5,0,0,1.5,170,-1001.1812)">
            <path
               sodipodi:type="arc"
               style="fill:#333333;fill-opacity:1;fill-rule:nonzero;stroke:none"
               id="path4061"
               sodipodi:cx="-36.468796"
               sodipodi:cy="-71.487625"
               sodipodi:rx="1.581779"
               sodipodi:ry="1.6257174"
               d="m -34.887017,-71.487625 c 0,0.897859 -0.708186,1.625717 -1.581779,1.625717 -0.873592,0 -1.581779,-0.727858 -1.581779,-1.625717 0,-0.897859 0.708187,-1.625718 1.581779,-1.625718 0.873593,0 1.581779,0.727859 1.581779,1.625718 z"
               transform="matrix(1.8965987,0,0,1.8453392,72.166671,1181.2811)" />
            <path
               transform="matrix(0.63219957,0,0,0.61511307,26.055557,1093.3352)"
               d="m -34.887017,-71.487625 c 0,0.897859 -0.708186,1.625717 -1.581779,1.625717 -0.873592,0 -1.581779,-0.727858 -1.581779,-1.625717 0,-0.897859 0.708187,-1.625718 1.581779,-1.625718 0.873593,0 1.581779,0.727859 1.581779,1.625718 z"
               sodipodi:ry="1.6257174"
               sodipodi:rx="1.581779"
               sodipodi:cy="-71.487625"
               sodipodi:cx="-36.468796"
               id="path4063"
               style="opacity:0.66013076;fill:#1a1a1a;fill-opacity:1;fill-rule:nonzero;stroke:none"
               sodipodi:type="arc" />
          </g>
          <g
             style="filter:url(#filter3765)"
             id="g4065"
             transform="matrix(1.1666667,0,0,1.1666667,205,-645.39378)">
            <path
               sodipodi:type="arc"
               style="fill:#333333;fill-opacity:1;fill-rule:nonzero;stroke:none"
               id="path4067"
               sodipodi:cx="-36.468796"
               sodipodi:cy="-71.487625"
               sodipodi:rx="1.581779"
               sodipodi:ry="1.6257174"
               d="m -34.887017,-71.487625 c 0,0.897859 -0.708186,1.625717 -1.581779,1.625717 -0.873592,0 -1.581779,-0.727858 -1.581779,-1.625717 0,-0.897859 0.708187,-1.625718 1.581779,-1.625718 0.873593,0 1.581779,0.727859 1.581779,1.625718 z"
               transform="matrix(1.8965987,0,0,1.8453392,72.166671,1181.2811)" />
            <path
               transform="matrix(0.63219957,0,0,0.61511307,26.055557,1093.3352)"
               d="m -34.887017,-71.487625 c 0,0.897859 -0.708186,1.625717 -1.581779,1.625717 -0.873592,0 -1.581779,-0.727858 -1.581779,-1.625717 0,-0.897859 0.708187,-1.625718 1.581779,-1.625718 0.873593,0 1.581779,0.727859 1.581779,1.625718 z"
               sodipodi:ry="1.6257174"
               sodipodi:rx="1.581779"
               sodipodi:cy="-71.487625"
               sodipodi:cx="-36.468796"
               id="path4069"
               style="opacity:0.66013076;fill:#1a1a1a;fill-opacity:1;fill-rule:nonzero;stroke:none"
               sodipodi:type="arc" />
          </g>
        </g>
      </g>
    </g>
  </g>
</svg>
